<?xml version="1.0" standalone="no"?>
<!DOCTYPE svg PUBLIC "-//W3C//DTD SVG 20010904//EN"
 "http://www.w3.org/TR/2001/REC-SVG-20010904/DTD/svg10.dtd">
<svg version="1.0" xmlns="http://www.w3.org/2000/svg"
 width="632.000000pt" height="629.000000pt" viewBox="0 0 632.000000 629.000000"
 preserveAspectRatio="xMidYMid meet">

<g transform="translate(0.000000,629.000000) scale(0.100000,-0.100000)"
fill="#000000" stroke="none">
<path d="M0 3145 l0 -3145 3160 0 3160 0 0 3145 0 3145 -3160 0 -3160 0 0
-3145z m3505 2995 c197 -22 271 -32 296 -41 14 -6 43 -11 65 -13 46 -5 155
-34 239 -66 33 -12 72 -25 88 -27 15 -3 27 -9 27 -14 0 -5 9 -9 19 -9 16 0
108 -38 276 -115 17 -8 47 -25 67 -38 20 -14 47 -28 59 -32 13 -4 35 -15 49
-24 51 -33 65 -41 86 -50 11 -5 27 -15 35 -23 27 -26 94 -74 119 -85 14 -6 61
-41 105 -78 107 -89 114 -95 120 -95 8 0 275 -272 275 -279 0 -4 20 -26 45
-49 25 -23 45 -46 45 -50 0 -5 20 -32 45 -61 25 -30 53 -67 61 -82 8 -16 19
-29 24 -29 6 0 10 -6 10 -13 0 -7 13 -28 30 -47 16 -19 29 -43 30 -52 0 -10 4
-18 9 -18 10 0 58 -76 90 -142 12 -27 27 -50 32 -54 5 -3 9 -14 9 -24 0 -10 4
-20 8 -22 11 -4 52 -94 52 -113 0 -9 5 -13 10 -10 6 3 10 -4 10 -17 0 -13 6
-32 13 -43 17 -26 57 -134 97 -260 18 -55 36 -108 41 -117 5 -10 9 -25 9 -35
0 -9 4 -30 9 -47 62 -201 96 -530 88 -847 -4 -192 -28 -419 -47 -464 -4 -11
-18 -69 -30 -128 -20 -103 -43 -189 -60 -232 -5 -11 -20 -54 -33 -95 -72 -220
-279 -620 -379 -733 -16 -18 -28 -35 -28 -40 0 -7 -41 -63 -75 -103 -5 -7 -21
-26 -35 -44 -45 -56 -325 -346 -340 -352 -4 -2 -36 -28 -70 -58 -34 -30 -64
-54 -67 -52 -2 1 -10 -3 -17 -10 -30 -29 -67 -58 -74 -58 -4 0 -27 -16 -51
-35 -24 -19 -47 -35 -52 -35 -4 0 -14 -6 -21 -13 -30 -31 -352 -207 -444 -244
-293 -117 -496 -175 -739 -212 -71 -11 -148 -23 -170 -26 -135 -22 -484 -20
-660 4 -91 12 -290 48 -334 61 -19 5 -38 7 -42 4 -5 -3 -9 0 -9 5 0 6 -11 11
-24 11 -14 0 -37 5 -53 11 -15 6 -50 17 -78 24 -54 15 -181 59 -230 80 -16 7
-70 30 -120 51 -49 20 -106 46 -125 57 -19 11 -65 35 -103 55 -37 19 -70 38
-73 43 -2 4 -12 5 -21 2 -11 -4 -14 -3 -9 5 4 7 2 12 -4 12 -6 0 -20 9 -32 20
-12 11 -30 20 -40 20 -10 0 -18 5 -18 10 0 6 -7 10 -15 10 -8 0 -15 4 -15 8 0
5 -24 24 -52 42 -29 19 -55 37 -58 40 -3 4 -24 19 -48 34 -24 15 -71 52 -105
82 -34 31 -84 74 -110 97 -41 36 -133 128 -240 240 -15 16 -27 32 -27 37 0 5
-3 10 -7 12 -12 5 -73 85 -73 95 0 5 -13 23 -30 41 -16 18 -30 38 -30 43 0 6
-4 7 -10 4 -5 -3 -12 6 -16 20 -3 14 -11 25 -17 25 -6 0 -8 3 -4 6 3 3 2 11
-4 18 -41 50 -70 93 -75 113 -4 12 -9 23 -14 23 -4 0 -15 18 -25 40 -10 22
-22 40 -27 40 -5 0 -6 5 -3 10 3 5 2 10 -3 10 -14 0 -137 256 -146 304 -2 11
-11 35 -20 51 -9 17 -16 40 -16 53 0 12 -4 22 -10 22 -5 0 -14 19 -21 43 -6
23 -18 64 -26 91 -30 95 -81 342 -99 476 -16 122 -28 478 -15 440 5 -14 9 -44
10 -67 2 -63 46 -295 79 -408 36 -123 122 -358 134 -366 5 -3 10 -10 9 -15 0
-12 120 -256 134 -270 5 -6 21 -30 35 -53 41 -69 110 -174 141 -212 16 -20 29
-40 29 -44 0 -33 270 -315 430 -448 58 -48 117 -98 132 -111 15 -13 30 -21 33
-18 2 3 15 -6 27 -19 31 -33 188 -123 198 -112 7 8 24 86 35 163 39 261 215
692 407 994 53 83 66 111 56 117 -24 16 -222 78 -328 104 -101 24 -240 43
-240 33 0 -3 5 -19 11 -37 23 -66 -36 -257 -105 -338 -47 -56 -110 -53 -141 7
-34 65 -7 246 49 330 45 68 60 73 194 67 135 -6 302 -43 479 -105 l113 -40 57
72 c179 223 380 379 755 587 54 30 98 59 98 65 0 20 -103 156 -183 241 -82 86
-191 183 -206 183 -5 0 -12 -24 -15 -52 -20 -145 -179 -288 -261 -234 -37 24
-48 53 -42 107 11 92 79 184 171 229 33 17 64 30 70 30 21 -1 121 -70 191
-132 87 -78 197 -201 260 -293 26 -38 49 -72 51 -74 2 -2 9 1 16 6 7 6 96 43
196 82 201 79 389 134 518 153 46 7 84 17 84 23 0 5 5 58 10 116 26 273 130
478 319 631 195 157 429 230 644 199 75 -11 155 -38 206 -70 19 -12 57 -16
165 -17 124 -1 155 -5 261 -32 66 -18 123 -32 127 -32 8 0 1 52 -10 80 -3 8
-6 17 -7 20 -1 3 -4 12 -7 20 -3 8 -18 51 -33 95 -43 128 -49 145 -57 145 -5
0 -8 8 -8 19 0 24 -147 310 -171 334 -11 10 -19 24 -19 31 0 7 -9 23 -20 36
-11 13 -20 27 -20 31 0 4 -6 14 -14 22 -8 8 -26 31 -39 51 -25 36 -70 92 -119
149 -15 18 -28 35 -28 40 0 8 -117 134 -164 176 -16 14 -55 51 -86 81 -79 76
-141 127 -198 162 -26 17 -49 33 -52 37 -3 4 -17 12 -32 18 -16 7 -28 17 -28
23 0 5 -4 10 -9 10 -5 0 -36 17 -68 38 -32 21 -103 62 -158 92 -55 29 -102 56
-105 59 -4 5 -41 22 -145 67 -16 7 -52 20 -80 29 -27 9 -72 25 -100 35 -118
44 -279 91 -378 110 -119 23 -349 49 -447 51 -48 1 -58 3 -40 9 36 12 500 12
605 0z m-715 -170 c0 -5 -4 -10 -10 -10 -5 0 -10 5 -10 10 0 6 5 10 10 10 6 0
10 -4 10 -10z m168 -21 c2 -10 -6 -19 -18 -22 -23 -6 -34 7 -26 29 8 20 40 14
44 -7z m-268 -89 c0 -11 -7 -20 -15 -20 -15 0 -21 21 -8 33 12 13 23 7 23 -13z
m1067 -46 c10 -2 19 -7 21 -12 2 -6 11 -8 22 -5 17 4 18 0 15 -42 -2 -26 -6
-50 -9 -53 -4 -3 1 -13 10 -23 20 -22 13 -35 -23 -44 -33 -8 -63 -33 -63 -52
0 -20 -28 -16 -35 6 -4 13 -19 21 -50 26 -30 4 -45 11 -45 21 0 8 -7 17 -16
21 -8 3 -13 12 -10 19 5 12 -30 14 -217 12 l-222 -3 2 -27 c2 -25 -1 -27 -33
-26 -25 1 -39 -5 -50 -20 -20 -29 -34 -28 -34 3 0 14 -6 25 -12 25 -10 0 -9 3
1 9 9 6 3 10 -20 13 -18 3 -102 -11 -198 -34 -91 -21 -215 -50 -276 -63 -60
-14 -111 -29 -115 -34 -3 -4 -16 -14 -28 -20 -18 -10 -22 -18 -18 -37 7 -27
-4 -31 -34 -12 -16 10 -24 10 -40 0 -12 -7 -25 -10 -30 -7 -6 4 -10 2 -10 -3
0 -8 -105 -118 -338 -354 -79 -80 -93 -99 -83 -112 10 -11 8 -17 -7 -28 -13
-9 -19 -25 -19 -51 0 -44 -6 -53 -23 -32 -14 17 -56 20 -65 5 -13 -21 -24 -9
-23 25 1 24 -6 43 -21 59 -21 23 -15 46 9 31 5 -3 22 5 37 19 32 30 43 32 43
11 0 -8 5 -15 10 -15 6 0 10 5 10 10 0 6 4 9 10 8 5 -2 114 101 242 227 220
218 256 263 227 280 -19 12 -8 27 17 22 20 -3 28 1 36 19 14 31 26 30 34 0 7
-28 41 -41 59 -22 7 6 50 20 96 30 46 9 168 37 272 62 103 24 191 43 196 41
17 -4 51 46 51 75 0 33 10 36 34 9 13 -15 27 -18 57 -15 38 5 40 4 30 -15 -6
-11 -8 -22 -4 -24 16 -7 379 -7 413 1 28 6 36 13 40 37 5 24 10 29 28 28 12
-2 22 2 22 7 0 6 7 10 15 10 8 0 15 5 15 10 0 6 6 10 14 10 7 0 19 7 27 16 12
14 14 14 26 -2 7 -10 21 -19 30 -20z m-886 -67 c-13 -13 -26 -3 -16 12 3 6 11
8 17 5 6 -4 6 -10 -1 -17z m602 -172 c8 -18 -11 -31 -25 -17 -11 11 -3 32 12
32 4 0 10 -7 13 -15z m-133 -140 c0 -8 -4 -15 -10 -15 -5 0 -10 7 -10 15 0 8
5 15 10 15 6 0 10 -7 10 -15z m-1650 -26 c0 -5 -4 -9 -10 -9 -5 0 -10 7 -10
16 0 8 5 12 10 9 6 -3 10 -10 10 -16z m1000 -29 c0 -5 -4 -10 -10 -10 -5 0
-10 5 -10 10 0 6 5 10 10 10 6 0 10 -4 10 -10z m205 -20 c3 -5 -1 -10 -10 -10
-9 0 -13 5 -10 10 3 6 8 10 10 10 2 0 7 -4 10 -10z m-197 -118 c2 -7 -6 -12
-17 -12 -21 0 -27 11 -14 24 9 9 26 2 31 -12z m-1358 -43 c0 -11 5 -17 10 -14
6 3 10 2 10 -3 0 -5 9 -12 20 -15 28 -7 25 -24 -7 -32 -19 -4 -23 -9 -14 -14
10 -7 10 -12 0 -29 -16 -25 -63 -27 -54 -2 5 11 3 12 -5 4 -13 -13 -50 -7 -50
8 0 5 4 17 10 27 6 13 5 24 -5 37 -22 29 -18 37 14 31 19 -4 33 -1 41 8 17 21
30 18 30 -6z m2707 -77 c28 -48 66 -116 83 -152 18 -36 44 -84 57 -108 l25
-42 32 18 c103 62 378 184 388 174 5 -5 -28 -23 -74 -42 -115 -44 -303 -137
-322 -159 -15 -17 -10 -30 75 -197 50 -98 102 -198 116 -222 14 -24 22 -46 19
-49 -3 -4 -8 -4 -10 -2 -5 5 -109 206 -259 499 -130 255 -184 350 -197 350 -6
0 -10 5 -10 10 0 31 31 -1 77 -78z m-2538 -47 c108 -56 129 -71 119 -81 -6 -5
-198 92 -243 122 -19 14 -19 14 1 14 10 0 66 -25 123 -55z m1889 28 c5 -16 43
-135 83 -266 40 -130 76 -243 80 -249 8 -12 24 -8 113 28 13 5 17 3 14 -6 -2
-8 -30 -22 -61 -33 -31 -10 -57 -23 -57 -28 0 -5 -9 -9 -19 -9 -30 0 -161 -59
-402 -181 -121 -61 -223 -108 -226 -105 -4 3 -4 8 -2 10 8 7 555 274 587 286
20 8 32 19 32 31 0 11 -31 115 -69 232 -38 117 -72 229 -76 250 -11 55 -25 62
-93 47 -113 -25 -328 -112 -569 -230 -126 -62 -162 -75 -137 -50 10 10 352
167 464 212 122 50 242 87 286 87 36 1 43 -2 52 -26z m-2118 -33 c0 -16 -324
-660 -332 -660 -19 0 2 48 153 349 141 283 179 348 179 311z m2676 -178 c17
-11 154 -325 154 -352 0 -26 -20 -5 -30 31 -6 22 -37 100 -69 172 -53 118 -62
132 -86 135 -38 5 -159 -34 -233 -74 -69 -37 -72 -38 -72 -24 0 14 87 56 187
90 89 30 129 36 149 22z m874 -177 l88 -44 78 44 c43 25 84 45 92 45 23 0 25
-29 4 -104 l-20 -73 71 -6 c75 -7 106 -23 90 -51 -5 -9 -35 -37 -68 -64 l-60
-48 -3 -69 c-5 -139 -16 -144 -110 -49 -51 51 -70 64 -86 59 -41 -11 -115 -17
-140 -11 -21 5 -26 12 -26 39 0 17 11 50 23 72 l23 40 -27 90 c-35 120 -44
175 -29 175 7 0 52 -20 100 -45z m-2395 -172 c122 -317 287 -685 416 -930 38
-73 69 -135 69 -138 0 -15 -22 -2 -29 18 -5 12 -64 135 -131 272 -170 348
-220 459 -312 695 -44 113 -82 211 -85 218 -3 6 -1 12 5 12 6 0 36 -66 67
-147z m1645 -12 c0 -5 -17 -12 -37 -16 -42 -8 -273 -93 -287 -106 -15 -13 1
-51 58 -139 31 -47 57 -89 59 -95 4 -12 226 65 334 116 88 42 93 44 93 30 0
-4 -26 -20 -57 -34 -70 -31 -349 -137 -361 -137 -5 0 -42 52 -83 115 -41 63
-80 114 -86 115 -29 1 -9 21 44 46 70 33 282 111 306 113 9 1 17 -3 17 -8z
m-1865 -141 c13 -36 35 -94 50 -130 29 -67 37 -115 20 -115 -5 0 -8 7 -7 16 2
10 -20 71 -48 137 -27 66 -50 125 -50 131 0 6 -5 11 -10 11 -38 0 -220 -112
-290 -178 -56 -54 -77 -55 -25 -2 77 79 279 204 318 198 14 -2 26 -21 42 -68z
m-1275 5 c0 -8 4 -17 10 -20 6 -4 7 1 3 11 -6 15 -4 15 13 -2 13 -12 16 -22
10 -27 -7 -4 -2 -10 12 -13 14 -4 21 -12 18 -20 -6 -15 -5 -15 197 -65 75 -18
137 -37 137 -41 0 -15 -39 -8 -202 32 -88 22 -165 37 -169 34 -5 -3 -9 -14 -9
-25 0 -23 -8 -24 -32 -2 -16 14 -24 15 -50 5 -36 -13 -44 -10 -32 15 11 26 13
53 3 59 -17 10 -10 36 9 30 11 -4 25 4 41 24 23 30 41 32 41 5z m-380 -70 c0
-19 -20 -29 -32 -17 -8 8 -7 16 2 26 14 17 30 12 30 -9z m930 -69 c0 -3 -4
-16 -9 -30 -7 -18 -6 -28 5 -36 20 -17 17 -30 -6 -30 -12 0 -25 -10 -32 -25
-6 -14 -15 -25 -19 -25 -4 0 -10 11 -13 25 -5 20 -13 25 -36 25 -31 0 -41 17
-15 26 10 4 13 15 10 35 -6 31 4 36 34 19 13 -6 24 -5 37 5 18 14 44 20 44 11z
m-830 -46 c0 -5 -7 -10 -15 -10 -8 0 -15 5 -15 10 0 6 7 10 15 10 8 0 15 -4
15 -10z m3002 -21 c11 -14 25 -50 31 -80 11 -48 15 -54 41 -57 16 -2 36 4 47
14 10 9 22 14 27 10 15 -16 -41 -47 -81 -44 -34 2 -40 -1 -54 -29 -21 -44 -67
-59 -93 -33 -24 24 -26 77 -4 109 17 23 43 25 88 6 17 -8 18 -5 12 31 -14 76
-52 106 -103 82 -17 -8 -32 -25 -38 -45 -10 -37 -25 -44 -25 -12 0 11 13 34
30 50 38 39 93 38 122 -2z m-1402 -18 c0 -9 -85 -61 -227 -138 -35 -19 -63
-38 -63 -42 0 -4 13 -32 29 -62 16 -30 43 -89 61 -131 17 -42 37 -81 44 -87
10 -9 35 2 101 43 118 75 265 128 265 97 0 -6 -11 -11 -24 -11 -33 0 -119 -37
-196 -83 -127 -78 -137 -82 -152 -69 -8 6 -41 71 -73 143 -40 89 -65 133 -77
137 -10 2 -17 10 -15 16 2 6 68 48 148 94 79 45 148 87 153 92 13 13 26 13 26
1z m765 -81 c17 -34 18 -40 6 -40 -5 0 -17 14 -25 32 -19 37 -19 38 -6 38 5 0
16 -13 25 -30z m376 -90 c5 0 9 13 9 29 0 32 34 81 56 81 8 0 14 -4 14 -10 0
-5 -7 -10 -15 -10 -8 0 -19 -9 -25 -19 -14 -28 -12 -129 5 -176 8 -21 12 -41
10 -43 -9 -9 -24 11 -35 46 -7 20 -32 75 -56 121 -24 45 -41 88 -38 93 4 6 20
-17 36 -51 16 -34 33 -61 39 -61z m-2939 75 c0 -5 -5 -11 -11 -13 -6 -2 -11 4
-11 13 0 9 5 15 11 13 6 -2 11 -8 11 -13z m2805 -59 c49 -55 103 -206 103
-285 0 -47 -4 -57 -34 -87 -33 -33 -86 -47 -86 -24 0 6 11 10 25 10 31 0 63
34 71 76 3 17 -1 59 -10 94 -9 34 -17 65 -17 68 -1 4 -4 -6 -8 -23 -4 -21 -13
-31 -28 -33 -54 -8 -132 195 -91 236 20 20 35 14 75 -32z m-2493 -75 c8 -12
-21 -34 -34 -26 -17 11 -11 35 9 35 11 0 22 -4 25 -9z m2322 -25 c1 -45 53
-148 82 -161 21 -9 31 -35 13 -35 -33 0 -121 152 -121 210 0 36 25 22 26 -14z
m-86 -5 c0 -5 -7 -25 -15 -44 -19 -46 -19 -165 -1 -237 8 -30 13 -57 11 -58
-8 -8 -25 10 -25 27 0 21 -83 184 -116 228 -25 33 -32 63 -14 63 6 0 10 -4 10
-10 0 -5 22 -48 49 -94 l48 -85 6 77 c6 81 23 142 38 142 5 0 9 -4 9 -9z
m-2095 -20 c3 -5 1 -12 -5 -16 -5 -3 -10 1 -10 9 0 18 6 21 15 7z m72 -185
c-9 -22 -34 -20 -47 3 -8 16 -6 22 7 30 22 12 49 -10 40 -33z m-245 -18 c-12
-12 -35 -1 -27 12 3 5 13 6 21 3 10 -4 12 -9 6 -15z m872 -11 c26 -39 40 -125
27 -167 -6 -21 -18 -41 -26 -44 -8 -3 -15 -11 -15 -18 0 -8 44 -65 99 -128 94
-110 160 -173 209 -199 22 -12 30 -31 13 -31 -23 0 -139 110 -243 230 -62 72
-120 130 -129 130 -42 0 -67 71 -55 153 12 82 86 127 120 74z m-1204 -22 c7
-8 16 -12 21 -9 5 3 9 0 9 -6 0 -6 13 -5 36 5 45 19 46 19 43 -2 -4 -40 3 -52
34 -63 31 -12 32 -12 10 -22 -13 -6 -23 -15 -23 -20 0 -5 -5 -6 -12 -2 -7 4
-8 3 -4 -5 4 -6 1 -14 -7 -16 -9 -4 -12 -16 -9 -35 4 -31 -6 -38 -26 -18 -18
18 -61 16 -79 -4 -23 -25 -34 -22 -27 6 9 36 -3 63 -32 70 l-26 7 35 34 c32
31 35 38 27 65 -10 33 7 42 30 15z m1370 -54 c0 -13 -29 -35 -37 -28 -7 8 15
37 28 37 5 0 9 -4 9 -9z m-734 -79 c62 -46 153 -140 160 -166 8 -34 -18 -121
-36 -121 -32 0 -56 113 -35 166 4 11 -14 33 -61 73 -54 46 -69 54 -81 45 -20
-17 -62 -91 -73 -130 -9 -31 -7 -35 74 -118 147 -151 164 -174 171 -236 8 -63
2 -88 -21 -83 -29 5 -57 54 -62 106 -4 46 -3 51 18 54 20 3 11 15 -71 99 -52
53 -105 103 -118 111 -24 14 -24 16 -11 62 13 49 83 166 98 166 5 0 27 -13 48
-28z m-406 -302 c0 -11 7 -23 15 -26 8 -4 15 -10 15 -15 0 -5 -7 -9 -15 -9
-10 0 -15 -10 -15 -26 0 -23 -2 -25 -16 -13 -9 8 -27 12 -40 11 -25 -4 -33 13
-11 21 10 3 10 9 0 26 -18 29 -16 34 11 27 16 -4 26 -1 30 9 8 22 26 18 26 -5z
m-219 -73 c-13 -13 -26 -3 -16 12 3 6 11 8 17 5 6 -4 6 -10 -1 -17z m-161 -71
c0 -8 -4 -17 -9 -21 -12 -7 -24 12 -16 25 9 15 25 12 25 -4z m2000 -85 c0 -27
20 -39 70 -43 25 -2 43 -7 40 -13 -8 -15 -72 -6 -100 14 -26 18 -40 61 -21 61
6 0 11 -8 11 -19z m-1748 -110 c-3 -15 33 -85 60 -116 26 -30 56 -31 109 -4
33 16 43 18 55 8 18 -14 15 -80 -3 -86 -9 -3 -10 4 -4 25 15 50 0 58 -56 34
-30 -13 -59 -19 -73 -15 -20 5 -22 3 -16 -13 4 -10 30 -81 58 -157 l50 -138
-27 -52 c-43 -80 -65 -107 -85 -107 -26 0 -34 16 -32 70 2 115 80 198 98 104
6 -33 17 -43 28 -26 3 5 -13 56 -35 113 -22 57 -53 138 -69 179 -15 41 -40 95
-54 120 -28 48 -34 85 -13 77 6 -2 11 -10 9 -16z m1866 -23 c-7 -20 -34 -31
-61 -24 -37 9 -35 29 2 21 17 -3 32 -2 36 4 9 15 28 14 23 -1z m-1126 -968
c15 0 28 -4 28 -10 0 -13 -46 -13 -71 1 -11 5 -17 15 -13 20 4 7 10 7 17 0 6
-6 24 -11 39 -11z m-32 -110 c0 -14 46 -13 70 2 10 7 22 9 26 5 15 -15 -17
-31 -63 -31 -37 -1 -48 3 -51 17 -2 9 1 17 7 17 6 0 11 -4 11 -10z"/>
<path d="M4540 4185 c-179 -40 -332 -125 -457 -252 -132 -134 -213 -318 -233
-530 -5 -60 -10 -113 -10 -119 0 -7 63 -10 189 -10 l189 1 7 45 c48 346 325
663 679 780 63 21 68 24 51 36 -73 54 -284 79 -415 49z"/>
<path d="M5050 4103 c-312 -49 -594 -263 -731 -556 -32 -69 -69 -204 -69 -251
l0 -31 138 -19 c234 -31 547 -118 773 -215 95 -41 278 -140 366 -199 28 -19
56 -31 61 -28 5 3 12 32 16 63 3 32 11 85 16 118 24 131 34 384 22 560 -7 94
-16 195 -21 225 -23 132 -47 226 -61 242 -20 21 -175 74 -260 87 -62 10 -198
13 -250 4z"/>
<path d="M3880 3244 c-273 -32 -431 -76 -748 -206 -68 -28 -121 -53 -120 -57
2 -3 26 -51 54 -106 74 -144 148 -385 126 -407 -13 -13 -14 -10 -31 67 -23
102 -75 243 -123 338 -27 53 -54 97 -58 97 -11 0 -231 -123 -340 -190 -192
-118 -395 -295 -513 -447 l-48 -62 100 -51 c84 -42 224 -121 240 -136 3 -3 0
-8 -5 -13 -5 -6 -39 9 -84 36 -101 61 -258 136 -269 129 -5 -4 -30 -38 -56
-77 -198 -301 -362 -693 -420 -1007 -32 -169 -32 -198 -2 -213 12 -7 24 -15
27 -18 5 -6 49 -28 141 -70 25 -12 52 -21 60 -21 8 0 28 -9 44 -20 17 -11 36
-20 43 -20 7 0 31 -9 55 -19 47 -21 124 -46 177 -57 19 -3 41 -10 50 -15 8 -5
49 -16 90 -25 41 -8 95 -20 120 -25 25 -5 63 -12 85 -14 22 -2 101 -11 175
-20 212 -23 347 -20 610 16 41 6 91 12 110 15 100 12 324 70 383 100 16 8 36
14 45 14 19 0 102 31 147 54 17 9 34 16 38 16 18 0 254 122 317 163 59 38 69
49 107 126 125 253 221 638 242 977 19 306 -10 601 -90 919 -44 178 -46 183
-77 189 -136 29 -493 53 -602 40z m-153 -1079 c94 -39 163 -127 163 -204 0
-66 -35 -122 -85 -140 -120 -41 -285 99 -285 242 0 42 5 54 34 83 30 30 40 34
85 34 29 0 68 -7 88 -15z m-1042 -559 c42 -32 84 -116 91 -183 13 -108 -47
-203 -127 -203 -111 0 -183 86 -182 220 1 162 112 246 218 166z m889 -84 c45
-147 12 -439 -53 -479 -24 -15 -121 7 -194 43 -121 62 -256 176 -244 208 8 20
27 21 27 2 0 -24 85 -98 174 -152 83 -50 211 -94 226 -77 23 25 52 137 57 218
6 97 -9 224 -28 236 -16 9 -2 30 16 23 8 -3 16 -13 19 -22z"/>
<path d="M4950 3077 c0 -3 13 -61 30 -130 70 -294 84 -403 84 -647 0 -247 -10
-320 -79 -607 -19 -80 -35 -149 -35 -153 0 -14 60 51 106 112 23 32 49 65 58
73 9 9 16 22 16 30 0 7 3 15 8 17 14 6 101 135 95 141 -3 4 2 9 11 13 9 3 16
15 16 25 0 10 4 19 8 19 10 0 62 99 62 116 0 7 6 17 13 23 25 20 42 150 42
316 0 179 -10 246 -62 408 l-34 107 -49 25 c-82 42 -290 122 -290 112z"/>
<path d="M4740 4735 c0 -12 40 -164 49 -187 6 -16 15 -28 21 -28 17 0 11 -20
-15 -48 -33 -36 -51 -90 -36 -105 25 -25 107 -11 195 31 5 3 6 -3 2 -13 -5
-14 7 -33 50 -76 32 -32 61 -56 66 -53 4 3 8 42 8 87 0 82 0 83 31 101 45 27
99 76 99 91 0 25 -125 36 -148 13 -25 -25 -25 7 1 80 28 78 33 112 19 112 -13
0 -126 -70 -138 -85 -15 -20 -22 -19 -59 10 -31 23 -145 78 -145 70z"/>
<path d="M3592 4068 c-16 -16 -15 -73 2 -87 18 -15 41 -5 60 24 21 31 20 45
-1 61 -22 17 -45 18 -61 2z"/>
<path d="M3204 4025 c-9 -23 5 -84 32 -136 45 -90 63 -78 45 29 -15 93 -59
154 -77 107z"/>
<path d="M955 3720 c-3 -5 -1 -10 4 -10 6 0 11 5 11 10 0 6 -2 10 -4 10 -3 0
-8 -4 -11 -10z"/>
<path d="M1582 3580 c0 -14 2 -19 5 -12 2 6 2 18 0 25 -3 6 -5 1 -5 -13z"/>
<path d="M1520 3501 c0 -5 5 -13 10 -16 6 -3 10 -2 10 4 0 5 -4 13 -10 16 -5
3 -10 2 -10 -4z"/>
<path d="M605 3189 c-4 -6 -3 -15 3 -21 6 -6 11 -4 15 6 7 18 -9 31 -18 15z"/>
<path d="M585 2425 c-25 -55 -15 -72 18 -30 16 20 26 43 23 51 -9 23 -23 16
-41 -21z"/>
<path d="M560 2311 c0 -35 15 -48 35 -31 20 17 19 22 -10 43 l-25 18 0 -30z"/>
</g>
</svg>
